#!OML:ASF E:\Mandelcareful walks\Project 1\Capture day 1\Session 1\Subject1.ASF
:FULLY-SPECIFIED
:DEGREES
2717
root 17.0172 15.9311 -0.474403 -430.766 96.3269 -435.755
lowerback 42.309 -2.7823 2.71205
upperback 8.62075 -0.784838 0.786356
thorax -10.4922 0.150922 -0.314324
lowerneck -29.4472 0.788097 -2.11489
upperneck 20.6118 5.41037 -11.0664
head 12.0056 0.804786 -2.83304
rclavicle 1.11319e-014 1.82882e-014
rhumerus -16.6922 -0.915238 -80.0074
rradius 62.3735
rwrist -25.1933
rhand -14.5827 -26.059
rfingers 7.12502
rthumb 11.5672 -55.7198
lclavicle 1.11319e-014 1.82882e-014
lhumerus -15.7956 -20.148 83.0014
lradius 66.1504
lwrist 20.7458
lhand -28.4658 -14.802
lfingers 7.12502
lthumb -1.83574 15.1698
rfemur -32.1787 -11.651 20.2198
rtibia 50.8833
rfoot -22.9619 -5.21189
rtoes 13.2141
lfemur -41.7382 16.1396 -20.5655
ltibia 58.7224
lfoot -14.1153 10.6369
ltoes -8.84848
2718
root 17.06 15.9334 -0.468971 -432.875 96.2602 -437.782
lowerback 42.3179 -2.80577 2.77468
upperback 8.65264 -0.788717 0.766177
thorax -10.4592 0.149551 -0.366571
lowerneck -29.4297 0.80421 -2.14543
upperneck 20.8276 5.47381 -11.0616
head 12.0899 0.821973 -2.81992
rclavicle -1.11319e-014 7.95139e-016
rhumerus -16.5817 -0.779111 -80.1275
rradius 62.4079
rwrist -25.1268
rhand -14.5062 -26.1239
rfingers 7.12502
rthumb 11.641 -55.7805
lclavicle -1.11319e-014 7.95139e-016
lhumerus -15.6769 -20.0968 82.9398
lradius 66.5651
lwrist 20.94
lhand -28.3053 -14.2435
lfingers 7.12502
lthumb -1.6808 15.7296
rfemur -31.8896 -11.5922 20.2295
rtibia 50.8317
rfoot -23.1389 -5.11088
rtoes 13.2874
lfemur -42.2707 15.8621 -20.8035
ltibia 56.8656
lfoot -13.3013 10.5554
ltoes -8.73523
2719
root 17.0992 15.9306 -0.468466 -433.96 96.2458 -438.901
lowerback 42.1927 -2.87192 2.84537
upperback 8.65729 -0.849346 0.77941
thorax -10.4174 0.118893 -0.363127
lowerneck -29.2835 0.931151 -2.03986
upperneck 20.8269 5.681 -11.3265
head 12.0921 0.894927 -2.89778
rclavicle 1.43125e-014 -4.77083e-015
rhumerus -16.4966 -0.696078 -80.2327
rradius 62.4408
rwrist -24.9202
rhand -14.4387 -26.0693
rfingers 7.12502
rthumb 11.706 -55.7222
lclavicle 1.43125e-014 -4.77083e-015
lhumerus -15.6298 -19.9979 82.9501
lradius 66.8062
lwrist 20.7687
lhand -28.3869 -14.4401
lfingers 7.12502
lthumb -1.75961 15.5324
rfemur -31.806 -11.642 20.2321
rtibia 50.8782
rfoot -23.3323 -5.05179
rtoes 13.2197
lfemur -42.8478 15.3298 -20.99
ltibia 55.0558
lfoot -12.552 10.2668
ltoes -6.72644
2720
root 17.1408 15.9252 -0.469547 -435.784 96.22 -440.745
lowerback 42.1346 -2.87726 2.7426
upperback 8.64411 -0.903066 0.824252
thorax -10.4145 0.0922209 -0.238653
lowerneck -29.2096 1.12618 -1.93864
upperneck 20.8238 5.96347 -11.5156
head 12.1078 1.00768 -2.93253
rclavicle -2.38542e-015 -1.59028e-015
rhumerus -16.5189 -0.44291 -80.2768
rradius 62.568
rwrist -24.7437
rhand -14.2489 -26.0026
rfingers 7.12502
rthumb 11.8891 -55.6451
lclavicle -2.38542e-015 -1.59028e-015
lhumerus -15.6267 -19.6555 82.8966
lradius 67.0597
lwrist 20.3227
lhand -28.1666 -14.0927
lfingers 7.12502
lthumb -1.54679 15.8815
rfemur -31.768 -11.6379 20.2308
rtibia 51.0067
rfoot -23.3364 -5.0405
rtoes 12.6953
lfemur -43.3208 14.7855 -21.0625
ltibia 53.3186
lfoot -11.764 9.79638
ltoes -4.72339
2721
root 17.1859 15.9136 -0.471322 -438.7 96.2384 -443.647
lowerback 42.1114 -2.79683 2.55687
upperback 8.6278 -0.888461 0.856048
thorax -10.4241 0.0972183 -0.114696
lowerneck -29.1808 1.18533 -1.97611
upperneck 20.8666 6.07132 -11.5293
head 12.1263 1.04981 -2.91204
rclavicle 1.11319e-014 2.62396e-014
rhumerus -16.5865 -0.232281 -80.2426
rradius 62.6234
rwrist -24.6281
rhand -14.1005 -25.7045
rfingers 7.12502
rthumb 12.0322 -55.3386
lclavicle 1.11319e-014 2.62396e-014
lhumerus -15.5878 -19.3344 82.8322
lradius 67.3631
lwrist 19.8492
lhand -27.6924 -13.3982
lfingers 7.12502
lthumb -1.08884 16.5787
rfemur -31.7155 -11.5957 20.154
rtibia 51.1802
rfoot -23.2084 -4.88861
rtoes 12.9935
lfemur -43.6774 14.402 -21.1668
ltibia 51.6297
lfoot -10.7155 9.18391
ltoes -3.92829
2722
root 17.2291 15.9049 -0.477189 -440.95 96.1493 -445.798
lowerback 42.1352 -2.79219 2.68795
upperback 8.60428 -0.829847 0.869996
thorax -10.4578 0.118905 -0.191925
lowerneck -29.0289 1.14441 -2.19434
upperneck 20.9507 6.07835 -11.4119
head 12.1207 1.0522 -2.83037
rclavicle 1.03368e-014 7.15625e-015
rhumerus -16.7118 -0.28156 -80.1903
rradius 62.5976
rwrist -24.5141
rhand -14.1798 -25.4012
rfingers 7.12502
rthumb 11.9558 -55.0398
lclavicle 1.03368e-014 7.15625e-015
lhumerus -15.5879 -19.3269 82.8488
lradius 67.6687
lwrist 19.7165
lhand -27.4539 -13.2524
lfingers 7.12502
lthumb -0.858518 16.7256
rfemur -31.5333 -11.6564 20.1769
rtibia 51.323
rfoot -23.2159 -4.61018
rtoes 14.1628
lfemur -43.9158 14.0289 -21.1099
ltibia 49.9491
lfoot -9.23666 8.45936
ltoes -3.78791
2723
root 17.273 15.9027 -0.485079 -442.436 96.0278 -447.145
lowerback 42.2074 -2.86277 2.96155
upperback 8.56552 -0.803213 0.848884
thorax -10.5247 0.124927 -0.366097
lowerneck -28.7797 1.18228 -2.26907
upperneck 20.9972 6.1834 -11.4894
head 12.1027 1.09103 -2.82644
rclavicle 2.3059e-014 -4.77083e-015
rhumerus -16.9567 -0.396782 -80.1796
rradius 62.6948
rwrist -24.4486
rhand -14.299 -25.4673
rfingers 7.12502
rthumb 11.8408 -55.1126
lclavicle 2.3059e-014 -4.77083e-015
lhumerus -15.572 -19.4838 82.8799
lradius 67.7451
lwrist 19.834
lhand -27.739 -13.8813
lfingers 7.12502
lthumb -1.13387 16.0954
rfemur -31.2517 -11.7828 20.2259
rtibia 51.4058
rfoot -23.3032 -4.40021
rtoes 14.6551
lfemur -44.051 13.5867 -20.9518
ltibia 48.2555
lfoot -7.33801 7.5569
ltoes -4.16314
2724
root 17.3162 15.9018 -0.494316 -444.065 95.9727 -448.716
lowerback 42.191 -2.92785 3.11368
upperback 8.53134 -0.831969 0.807348
thorax -10.5605 0.106605 -0.476307
lowerneck -28.5399 1.2455 -2.15299
upperneck 20.9636 6.28477 -11.745
head 12.0694 1.12478 -2.92083
rclavicle 2.8625e-014 5.08889e-014
rhumerus -17.1918 -0.395793 -80.1983
rradius 62.8383
rwrist -24.5023
rhand -14.297 -25.6841
rfingers 7.12502
rthumb 11.8428 -55.3292
lclavicle 2.8625e-014 5.08889e-014
lhumerus -15.5232 -19.5281 82.8595
lradius 67.7603
lwrist 20.2052
lhand -28.1099 -14.6641
lfingers 7.12502
lthumb -1.49207 15.3105
rfemur -31.0516 -11.8692 20.2172
rtibia 51.446
rfoot -23.3388 -4.26776
rtoes 14.6419
lfemur -44.1613 13.092 -20.8278
ltibia 46.5791
lfoot -5.27615 6.5397
ltoes -4.76328
2725
root 17.36 15.8998 -0.508106 -446.549 95.978 -451.161
lowerback 42.2086 -2.96313 3.09633
upperback 8.503 -0.892875 0.776843
thorax -10.5998 0.0762954 -0.473049
lowerneck -28.4832 1.34934 -2.04476
upperneck 21.0011 6.45482 -11.9611
head 12.1002 1.18281 -2.98985
rclavicle 5.56597e-015 1.27222e-014
rhumerus -17.3255 -0.262111 -80.2036
rradius 62.915
rwrist -24.6316
rhand -14.1843 -25.8612
rfingers 7.12502
rthumb 11.9514 -55.5
lclavicle 5.56597e-015 1.27222e-014
lhumerus -15.6687 -19.2439 82.845
lradius 68.0866
lwrist 20.3613
lhand -28.083 -14.53
lfingers 7.12502
lthumb -1.46608 15.4447
rfemur -30.8514 -11.8686 20.1251
rtibia 51.4764
rfoot -23.4521 -4.04827
rtoes 14.9202
lfemur -44.1904 12.5908 -20.6975
ltibia 44.9739
lfoot -3.52923 5.57272
ltoes -4.37167
2726
root 17.4043 15.8924 -0.524742 -449.715 95.994 -454.332
lowerback 42.2595 -2.95083 3.08904
upperback 8.46253 -0.893589 0.732093
thorax -10.662 0.0719834 -0.516058
lowerneck -28.6607 1.51831 -1.92081
upperneck 21.2231 6.75551 -12.1837
head 12.2577 1.2814 -3.0469
rclavicle -7.95139e-016 -3.81667e-014
rhumerus -17.4365 -0.29482 -80.1881
rradius 62.976
rwrist -24.6371
rhand -14.0183 -26.0311
rfingers 7.12502
rthumb 12.1115 -55.6605
lclavicle -7.95139e-016 -3.81667e-014
lhumerus -15.7805 -19.0154 82.8175
lradius 68.4083
lwrist 20.1951
lhand -27.9423 -13.8368
lfingers 7.12502
lthumb -1.33017 16.1388
rfemur -30.7123 -11.7616 20.0421
rtibia 51.5341
rfoot -23.6346 -3.82387
rtoes 15.239
lfemur -44.2653 12.1733 -20.5417
ltibia 43.486
lfoot -2.29165 4.76118
ltoes -2.63769
2727
root 17.4464 15.8842 -0.541356 -453.552 95.9336 -458.172
lowerback 42.2984 -2.89919 3.13518
upperback 8.47606 -0.816216 0.710476
thorax -10.657 0.104805 -0.596179
lowerneck -28.8677 1.68766 -1.81067
upperneck 21.4046 7.06942 -12.4329
head 12.4096 1.38198 -3.1083
rclavicle 1.43125e-014 -5.56597e-015
rhumerus -17.4848 -0.495819 -80.1573
rradius 63.0828
rwrist -24.5026
rhand -13.8912 -26.1746
rfingers 7.12502
rthumb 12.234 -55.7968
lclavicle 1.43125e-014 -5.56597e-015
lhumerus -15.6116 -19.0147 82.7428
lradius 68.4614
lwrist 20.4313
lhand -28.0713 -14.0544
lfingers 7.12502
lthumb -1.4548 15.9204
rfemur -30.5951 -11.5843 20.0962
rtibia 51.5972
rfoot -23.8177 -3.69936
rtoes 15.343
lfemur -44.3218 11.8863 -20.2842
ltibia 42.1351
lfoot -1.51698 4.42657
ltoes -0.547627
2728
root 17.4915 15.8851 -0.558881 -457.444 95.9278 -461.997
lowerback 42.4011 -2.84286 3.06991
upperback 8.46599 -0.774901 0.708334
thorax -10.6981 0.122168 -0.581625
lowerneck -28.7817 1.86003 -1.75951
upperneck 21.4438 7.37184 -12.6733
head 12.4488 1.49228 -3.15161
rclavicle 1.03368e-014 -3.97569e-015
rhumerus -17.5729 -0.540874 -80.1273
rradius 63.0459
rwrist -24.4548
rhand -13.8924 -26.0266
rfingers 7.12502
rthumb 12.2329 -55.6489
lclavicle 1.03368e-014 -3.97569e-015
lhumerus -15.6136 -18.8958 82.7062
lradius 68.5318
lwrist 20.648
lhand -28.1733 -14.6222
lfingers 7.12502
lthumb -1.55331 15.3519
rfemur -30.3733 -11.5042 20.0977
rtibia 51.6312
rfoot -23.9717 -3.51934
rtoes 15.5088
lfemur -44.2009 11.6851 -20.0823
ltibia 40.9433
lfoot -1.06047 4.99069
ltoes 1.01429
2729
root 17.5412 15.8942 -0.577554 -461.076 95.9713 -465.542
lowerback 42.4221 -2.80747 3.03314
upperback 8.47667 -0.757261 0.665401
thorax -10.6923 0.129578 -0.616236
lowerneck -28.6474 2.00118 -1.70013
upperneck 21.5175 7.63382 -12.9225
head 12.4917 1.58467 -3.20823
rclavicle 2.22639e-014 5.48646e-014
rhumerus -17.6276 -0.554308 -80.1161
rradius 62.8179
rwrist -24.5251
rhand -13.963 -25.8742
rfingers 7.12502
rthumb 12.1648 -55.5005
lclavicle 2.22639e-014 5.48646e-014
lhumerus -15.7255 -18.815 82.648
lradius 68.702
lwrist 20.6332
lhand -28.2276 -14.7249
lfingers 7.12502
lthumb -1.6057 15.2488
rfemur -30.1195 -11.5148 20.052
rtibia 51.616
rfoot -23.9498 -3.31805
rtoes 15.4518
lfemur -44.0314 11.5868 -19.9649
ltibia 39.9387
lfoot -0.575921 6.29406
ltoes 1.18411
2730
root 17.5926 15.9014 -0.598225 -466.127 96.0045 -470.516
lowerback 42.3657 -2.71794 3.01313
upperback 8.59548 -0.664423 0.614961
thorax -10.5383 0.176236 -0.701353
lowerneck -28.5387 2.10124 -1.68149
upperneck 21.4484 7.80584 -13.0917
head 12.4697 1.65 -3.24036
rclavicle -2.22639e-014 4.77083e-015
rhumerus -17.5388 -0.624939 -80.1086
rradius 62.6108
rwrist -24.5767
rhand -14.0203 -25.9144
rfingers 7.12502
rthumb 12.1095 -55.544
lclavicle -2.22639e-014 4.77083e-015
lhumerus -15.6294 -18.8368 82.4843
lradius 68.8628
lwrist 20.8069
lhand -28.4112 -14.9085
lfingers 7.12502
lthumb -1.78307 15.0638
rfemur -29.8869 -11.3336 20.0866
rtibia 51.576
rfoot -23.7429 -3.19448
rtoes 15.118
lfemur -43.8345 11.7463 -19.7981
ltibia 39.1465
lfoot -0.0057683 8.08058
ltoes 0.969774
